<svg width="200" height="200" viewBox="0 0 200 200" xmlns="http://www.w3.org/2000/svg">
    <defs>
        <filter id="jxttflzrja">
            <feColorMatrix in="SourceGraphic" values="0 0 0 0 0.270588 0 0 0 0 0.270588 0 0 0 0 0.270588 0 0 0 0.700000 0"/>
        </filter>
    </defs>
    <g filter="url(#jxttflzrja)" fill="none" fill-rule="evenodd" opacity=".7">
        <g transform="translate(17 25)" stroke="#FFF">
            <circle cx="112.5" cy="155.5" r="3.5"/>
            <circle cx="2" cy="94" r="2"/>
            <path d="M37.167 70.333h91.666v57.154c0 5.254-4.735 9.513-10.577 9.513H47.744c-5.842 0-10.577-4.26-10.577-9.513V70.333z"/>
            <path d="M91.333 70.333v25h37.5V112h-37.5v25H74.667v-25h-37.5V95.333h37.5v-25h16.666zM29.642 44.54l88.543-23.725a4.167 4.167 0 0 1 5.103 2.947l2.157 8.05a4.167 4.167 0 0 1-2.946 5.102L33.956 60.64a4.167 4.167 0 0 1-5.103-2.946l-2.157-8.05a4.167 4.167 0 0 1 2.946-5.102z"/>
            <path d="m63.683 27.293-20.217-3.1c-2.495-.384-4.944.593-6.538 2.607-1.595 2.014-2.125 4.802-1.418 7.443l2.182 8.14m72.444-19.41-2.181-8.141c-.708-2.641-2.562-4.79-4.95-5.737-2.387-.947-4.997-.569-6.966 1.01L79.921 23.028"/>
            <path d="m63.708 26.785 16.099-4.314 2.157 8.05-16.1 4.313zM65.864 34.835l16.1-4.314 4.313 16.099-16.099 4.314z"/>
            <circle cx="145.5" cy="3.5" r="3.5"/>
        </g>
    </g>
</svg>
